<svg width="16" height="16" viewBox="0 0 16 16" fill="none" xmlns="http://www.w3.org/2000/svg">
<path d="M15.8699 9.42525L14.1584 7.9155L15.8094 6.34053C15.87 6.28266 15.895 6.19706 15.8749 6.11587C15.8549 6.03472 15.7928 5.97041 15.7121 5.94709L13.5147 5.31297L14.3269 3.18622C14.3567 3.10809 14.3423 3.02009 14.2892 2.95531C14.2361 2.89056 14.1523 2.85891 14.0693 2.87228L11.8107 3.23641L11.627 0.968875C11.6203 0.885562 11.5694 0.812156 11.4934 0.776344C11.4175 0.740531 11.3281 0.747688 11.2589 0.795125L9.37563 2.08706L8.2316 0.116938C8.18957 0.0445625 8.11191 0 8.02785 0C7.94379 0 7.86616 0.0445625 7.82413 0.116938L6.51091 2.37844L4.23935 1.06741C4.16663 1.02544 4.07694 1.02525 4.0041 1.06684C3.93119 1.10844 3.88619 1.18556 3.88598 1.26912L3.88048 3.54397L1.60032 3.35603C1.51673 3.34916 1.43548 3.38719 1.3876 3.45584C1.33969 3.5245 1.33226 3.61337 1.36816 3.68894L2.34448 5.74628L0.203445 6.54881C0.12482 6.57828 0.0679762 6.64725 0.0542887 6.72972C0.0406012 6.81216 0.0722574 6.89559 0.137289 6.94856L1.90663 8.39081L0.318726 10.0286C0.260414 10.0888 0.238757 10.1753 0.261976 10.2556C0.285226 10.3359 0.349789 10.3978 0.43132 10.4179L2.65179 10.9664L1.92382 13.123C1.89707 13.2022 1.91488 13.2896 1.97051 13.3523C2.02616 13.4149 2.11119 13.4433 2.19354 13.4267L4.43604 12.9753L4.70857 15.234C4.71854 15.317 4.77235 15.3883 4.8496 15.4212C4.92691 15.4541 5.01595 15.4435 5.0832 15.3934L6.91432 14.0294L8.13479 15.8908C8.17798 15.9589 8.25319 16 8.33376 16C8.33682 16 8.33988 15.9999 8.34298 15.9998C8.42694 15.9965 8.50282 15.949 8.54198 15.875L9.60782 13.9249L11.5403 15.1428C11.6113 15.1876 11.7008 15.1912 11.7754 15.1525C11.8498 15.1138 11.8978 15.0384 11.9013 14.9549L11.996 12.682L14.2671 12.9583C14.3503 12.9684 14.433 12.9335 14.4836 12.8668C14.5341 12.8 14.545 12.7115 14.5121 12.6346L13.6173 10.5409L15.788 9.82209C15.8678 9.79569 15.9273 9.729 15.9442 9.64713C15.9611 9.56531 15.9327 9.48072 15.8699 9.42525Z" fill="#FFA600"/>
<path d="M7.94845 12.8012C10.6248 12.8012 12.7944 10.6333 12.7944 7.95909C12.7944 5.28484 10.6248 3.11694 7.94845 3.11694C5.27213 3.11694 3.10254 5.28484 3.10254 7.95909C3.10254 10.6333 5.27213 12.8012 7.94845 12.8012Z" fill="#FFDB2D"/>
<path d="M7.94849 3.11697C7.82711 3.11697 7.70686 3.12156 7.58777 3.13035C10.0956 3.31475 12.0729 5.40613 12.0729 7.95913C12.0729 10.5121 10.0956 12.6035 7.58777 12.7879C7.70686 12.7967 7.82714 12.8013 7.94849 12.8013C10.6248 12.8013 12.7944 10.6334 12.7944 7.95917C12.7944 5.28488 10.6248 3.11697 7.94849 3.11697Z" fill="#FFCA00"/>
</svg>
